<?xml version="1.0" encoding="UTF-8" standalone="no"?>
<!-- Created with Inkscape (http://www.inkscape.org/) -->

<svg
   width="217.4875mm"
   height="63.256187mm"
   viewBox="0 0 217.4875 63.256187"
   version="1.1"
   id="svg1"
   xml:space="preserve"
   xmlns:inkscape="http://www.inkscape.org/namespaces/inkscape"
   xmlns:sodipodi="http://sodipodi.sourceforge.net/DTD/sodipodi-0.dtd"
   xmlns:xlink="http://www.w3.org/1999/xlink"
   xmlns="http://www.w3.org/2000/svg"
   xmlns:svg="http://www.w3.org/2000/svg"><defs
     id="defs1"><linearGradient
       id="linearGradient20"><stop
         id="stop19"
         stop-color="hsl(195, 90%, 27%)"
         offset="0"
         style="stop-color:hsl(195, 90%, 27%);stop-opacity:1;" /><stop
         id="stop20"
         stop-color="hsl(193, 93%, 60%)"
         offset="1" /></linearGradient><linearGradient
       id="linearGradient6"><stop
         id="stop5"
         stop-color="hsl(195, 90%, 27%)"
         offset="0"
         style="stop-color:hsl(195, 90%, 27%);stop-opacity:1;" /><stop
         id="stop6"
         stop-color="hsl(193, 93%, 60%)"
         offset="1"
         style="stop-color:hsl(195, 90%, 27%);stop-opacity:1;" /></linearGradient><linearGradient
       inkscape:collect="always"
       xlink:href="#linearGradient6"
       id="linearGradient5"
       gradientTransform="scale(1.1067972,0.90350788)"
       x1="0.9035064"
       y1="11.067975"
       x2="89.447289"
       y2="11.067975"
       gradientUnits="userSpaceOnUse" /><linearGradient
       inkscape:collect="always"
       xlink:href="#linearGradient20"
       id="linearGradient29"
       x1="0.99999833"
       y1="69.95105"
       x2="17.550461"
       y2="69.95105"
       gradientUnits="userSpaceOnUse" /><linearGradient
       inkscape:collect="always"
       xlink:href="#linearGradient20"
       id="linearGradient30"
       x1="11.562248"
       y1="50.000004"
       x2="88.396309"
       y2="50.000004"
       gradientUnits="userSpaceOnUse" /><linearGradient
       inkscape:collect="always"
       xlink:href="#linearGradient20"
       id="linearGradient31"
       x1="88.929428"
       y1="45.664543"
       x2="99.000008"
       y2="45.664543"
       gradientUnits="userSpaceOnUse" /><linearGradient
       inkscape:collect="always"
       xlink:href="#linearGradient20"
       id="linearGradient32"
       x1="66.801201"
       y1="34.679554"
       x2="75.178551"
       y2="34.679554"
       gradientUnits="userSpaceOnUse" /></defs><g
     inkscape:label="Layer 1"
     inkscape:groupmode="layer"
     id="layer1"
     transform="translate(6.024409,-116.64348)"><g
       id="g1"
       transform="matrix(0.8609871,0,0,0.8609871,-3.743749,116.8719)"
       inkscape:label="BIRDY_LOGO"><g
         id="SvgjsG1068"
         featurekey="1p4tPl-0"
         transform="matrix(0.91836728,0,0,0.91836728,-3.5672555,-9.4489787)"
         fill="url(#SvgjsLinearGradient1074)"
         style="fill:url(#linearGradient5)"
         inkscape:export-filename="logo.svg"
         inkscape:export-xdpi="96"
         inkscape:export-ydpi="96"
         inkscape:label="layer-bird_icon"><path
           d="m 1.0155802,60.496294 c -0.46254114,13.395173 9.5262688,18.909507 9.5262688,18.909507 0.217689,-0.106435 3.987892,-2.048295 7.008612,-10.932615 z"
           fill="url(#SvgjsLinearGradient1074)"
           fill-opacity="1"
           fill-rule="evenodd"
           stroke="none"
           id="path1"
           style="fill:url(#linearGradient29);fill-rule:evenodd;stroke-width:1.00038;stroke-dasharray:none" /><path
           d="m 57.288337,10.000003 c -9.609838,0 -34.24025,3.231188 -35.009037,34.614014 -0.768775,31.382791 -10.717052,35.967236 -10.717052,35.967236 35.672958,19.072828 81.512622,11.459569 76.448305,-44.015351 0,-20.519517 -21.112367,-26.565899 -30.722216,-26.565899 z M 70.999359,24.77862 c 5.221538,0 9.458224,4.434525 9.458224,9.899893 0,5.465367 -4.236686,9.899893 -9.458224,9.899893 -5.221538,0 -9.458224,-4.434526 -9.458224,-9.899893 0,-5.465368 4.236686,-9.899893 9.458224,-9.899893 z"
           fill="url(#SvgjsLinearGradient1074)"
           fill-opacity="1"
           fill-rule="evenodd"
           stroke="none"
           id="path2"
           style="fill:url(#linearGradient30);fill-rule:evenodd;stroke-width:1.00038;stroke-dasharray:none" /><path
           d="m 89.167586,37.563014 c 0.479874,5.921577 0.381356,11.29455 -0.238156,16.13184 0.01753,0.01971 0.01633,0.05151 0.03397,0.07122 l 10.036605,-8.22617 -9.83247,-7.976892 z"
           fill="url(#SvgjsLinearGradient1074)"
           fill-opacity="1"
           fill-rule="evenodd"
           stroke="none"
           id="path3"
           style="fill:url(#linearGradient31);fill-rule:evenodd;stroke-width:1.00038;stroke-dasharray:none" /><path
           style="fill:url(#linearGradient32);fill-rule:evenodd;stroke-width:1.00038;stroke-dasharray:none;enable-background:accumulate"
           d="m 75.178549,34.679561 c 0,2.421363 -1.875332,4.384271 -4.188673,4.384271 -2.31334,0 -4.188674,-1.962908 -4.188674,-4.384271 0,-2.421374 1.875334,-4.384282 4.188674,-4.384282 2.313341,0 4.188673,1.962908 4.188673,4.384282 z"
           fill="url(#SvgjsLinearGradient1074)"
           fill-opacity="1"
           fill-rule="nonzero"
           stroke="none"
           marker="none"
           visibility="visible"
           display="inline"
           overflow="visible"
           id="path4" /></g><g
         id="SvgjsG1069"
         featurekey="nameLeftFeature-0"
         transform="matrix(2.6392961,0,0,2.6392961,104.71181,2.1599178)"
         fill="hsl(60, 6%, 97%)"
         style="fill:hsl(105, 6%, 75%);fill-opacity:1"
         inkscape:label="layer-bi"><path
           d="m 9.56,12.66 c 1.2,0.46 1.94,1.44 1.94,3.32 0,2.86 -2.08,3.94 -4.4,3.94 H 1 V 6.28 h 5.32 c 1.34,0 4.78,0 4.78,3.6 0,1.56 -0.62,2.36 -1.54,2.78 z m -6.4,-4.4 v 4.46 C 3.82,12.14 4.8,11.68 6.4,11.68 7.92,11.68 8.84,11.14 8.84,9.88 8.84,8.98 8.5,8.26 6.8,8.26 Z m 3.94,9.68 c 1.06,0 2.12,-0.42 2.12,-2.14 C 9.22,14.1 8.06,13.64 7,13.64 H 6.1 C 4.28,13.66 3.16,14.6 3.16,16.12 v 1.84 z m 8.26,1.98 H 13.2 V 6.28 h 2.16 z"
           id="path5"
           style="fill:hsl(105, 6%, 75%);fill-opacity:1" /></g><g
         id="SvgjsG1070"
         featurekey="nameRightFeature-0"
         transform="matrix(2.5850925,0,0,2.5850925,149.20109,3.032845)"
         fill="hsl(60, 6%, 97%)"
         style="fill:hsl(60, 6%, 97%);fill-opacity:1"
         inkscape:label="layer-rdy"><path
           d="M 9.4434,20 5.8301,13.7891 H 4.3262 V 20 H 1.9922 V 6.074 h 4.834 c 3.0176,0 4.3457,1.8066 4.3457,4.043 0,1.9434 -1.1523,3.252 -2.998,3.584 l 4.0137,6.2988 H 9.4435 Z M 4.3262,8.047 v 4.0137 h 2.1582 c 1.709,0 2.4414,-0.80078 2.4414,-1.9922 C 8.9258,8.8869 8.19338,8.047 6.4844,8.047 Z M 14.755872,20 V 6.074 h 4.7656 c 4.3555,0 6.543,2.832 6.543,6.9531 0,4.1309 -2.1875,6.9727 -6.543,6.9727 h -4.7656 z m 2.334,-2.0898 h 2.334 c 2.8516,0 4.1895,-1.8457 4.1895,-4.8828 0,-3.0176 -1.3379,-4.873 -4.1895,-4.873 h -2.334 v 9.7559 z M 38.974437,6.074 l -4.5801,7.2754 v 6.6504 h -2.3438 v -6.6211 l -4.5996,-7.3047 h 2.6172 l 3.1445,5.2051 3.1543,-5.2051 h 2.6074 z"
           id="path6"
           style="fill:hsl(60, 6%, 97%);fill-opacity:1" /></g></g></g></svg>
