<svg xmlns="http://www.w3.org/2000/svg" fill="none" viewBox="0 0 142 116">
  <path fill="url(#a)" fill-rule="evenodd" d="M.022 72.7c-.665 19.285 13.716 27.224 13.716 27.224.313-.153 5.74-2.949 10.09-15.74L.022 72.7Z" clip-rule="evenodd"/>
  <path fill="url(#b)" fill-rule="evenodd" d="M81.039 0C67.203 0 31.743 4.652 30.636 49.834c-1.107 45.182-15.43 51.782-15.43 51.782 51.36 27.46 117.355 16.499 110.064-63.369C125.27 8.705 94.874 0 81.039 0Zm19.74 21.277c7.517 0 13.617 6.384 13.617 14.253 0 7.868-6.1 14.253-13.617 14.253-7.518 0-13.617-6.385-13.617-14.253 0-7.869 6.1-14.253 13.617-14.253Z" clip-rule="evenodd"/>
  <path fill="url(#c)" fill-rule="evenodd" d="M126.935 39.683c.691 8.525.549 16.26-.342 23.225.025.028.023.074.048.102l14.45-11.843-14.156-11.484Z" clip-rule="evenodd"/>
  <path fill="url(#d)" d="M106.795 35.531c0 3.486-2.7 6.312-6.03 6.312s-6.03-2.826-6.03-6.312 2.7-6.312 6.03-6.312 6.03 2.826 6.03 6.312Z"/>
  <defs>
    <linearGradient id="a" x1="0" x2="23.828" y1="72.7" y2="72.7" gradientUnits="userSpaceOnUse">
      <stop stop-color="#2D388A"/>
      <stop offset="1" stop-color="#00AEEF"/>
    </linearGradient>
    <linearGradient id="b" x1="15.207" x2="125.825" y1="0" y2="0" gradientUnits="userSpaceOnUse">
      <stop stop-color="#2D388A"/>
      <stop offset="1" stop-color="#00AEEF"/>
    </linearGradient>
    <linearGradient id="c" x1="126.593" x2="141.091" y1="39.683" y2="39.683" gradientUnits="userSpaceOnUse">
      <stop stop-color="#2D388A"/>
      <stop offset="1" stop-color="#00AEEF"/>
    </linearGradient>
    <linearGradient id="d" x1="94.734" x2="106.795" y1="29.219" y2="29.219" gradientUnits="userSpaceOnUse">
      <stop stop-color="#2D388A"/>
      <stop offset="1" stop-color="#00AEEF"/>
    </linearGradient>
  </defs>
</svg>